<svg width="100" height="83" viewBox="0 0 100 83" fill="none" xmlns="http://www.w3.org/2000/svg">
<path d="M54.5682 49.6195C49.2246 32.123 -1.71359 43.367 9.41908 57.7862C14.8709 64.8474 25.5109 56.9309 33.2216 61.2731C39.0388 64.549 37.6215 77.1039 44.2405 76.8848C55.4513 76.5136 57.9119 60.5678 54.5682 49.6195Z" fill="#75A2B7"/>
<path d="M19.695 23.7547C19.8517 26.6223 21.0063 28.6055 23.5839 30.0438C28.9213 33.022 27.9266 23.0934 31.6276 20.4308C32.7096 19.6524 31.2153 15.7779 29.4739 15.2846C24.5968 13.9032 19.4286 18.8806 19.695 23.7547Z" fill="#75A2B7"/>
<path d="M42.7554 21.6378C42.8737 24.0337 43.8624 29.8665 46.2595 28.8383C50.3902 27.0662 49.8989 24.3804 51.1291 20.8526C51.7821 18.9801 54.5821 14.3365 53.0712 13.9351C48.8399 12.8111 42.5544 17.5656 42.7554 21.6378Z" fill="#75A2B7"/>
<path d="M57.825 27.9018C57.2626 30.6263 56.9826 34.8888 59.8106 34.7578C64.5773 34.5371 64.4089 33.2997 67.4827 30.3169C69.3352 28.5192 72.1698 23.1164 70.7098 22.2217C66.621 19.7162 58.7809 23.2712 57.825 27.9018Z" fill="#75A2B7"/>
<path d="M74.5611 50.246C75.8909 47.6846 75.9532 45.3901 74.5723 42.8559C71.7129 37.6084 67.4793 46.7028 63.0925 47.1579C61.81 47.2909 61.0643 51.3929 62.2406 52.6907C65.5347 56.3253 72.3009 54.5996 74.5611 50.246Z" fill="#75A2B7"/>
<path d="M71.2611 42.7894C65.9175 25.293 14.9793 36.537 26.1119 50.9561C31.5637 58.0173 42.2038 50.1008 49.9145 54.443C55.7316 57.7189 54.3143 70.2738 60.9334 70.0547C72.1441 69.6836 74.6048 53.7377 71.2611 42.7894Z" stroke="#758DB7"/>
<path d="M36.388 16.9246C36.5447 19.7922 37.6993 21.7754 40.2769 23.2137C45.6143 26.192 44.6196 16.2634 48.3206 13.6007C49.4026 12.8223 47.9083 8.94781 46.1669 8.45455C41.2898 7.07316 36.1216 12.0505 36.388 16.9246Z" stroke="#758DB7"/>
<path d="M59.4484 14.8077C59.5667 17.2036 60.5554 23.0365 62.9524 22.0082C67.0832 20.2362 66.5919 17.5503 67.8221 14.0226C68.475 12.15 71.2751 7.50638 69.7642 7.10502C65.5329 5.98101 59.2474 10.7355 59.4484 14.8077Z" stroke="#758DB7"/>
<path d="M74.518 21.0718C73.9556 23.7962 73.6756 28.0587 76.5036 27.9277C81.2703 27.707 81.1019 26.4696 84.1757 23.4869C86.0282 21.6891 88.8628 16.2863 87.4028 15.3916C83.314 12.8861 75.4739 16.4411 74.518 21.0718Z" stroke="#758DB7"/>
<path d="M91.2541 43.416C92.5839 40.8546 92.6462 38.5601 91.2653 36.0259C88.4059 30.7784 84.1723 39.8728 79.7855 40.3278C78.503 40.4608 77.7573 44.5628 78.9336 45.8606C82.2277 49.4953 88.9939 47.7695 91.2541 43.416Z" stroke="#758DB7"/>
</svg>
