<svg width="827" height="331" viewBox="0 0 827 331" fill="none" xmlns="http://www.w3.org/2000/svg">
<path d="M1 281.165C34.2372 272.965 113.951 258.273 166.91 265.1C233.109 273.635 238.487 309.78 316.685 317.31C394.882 324.84 480.526 258.574 553.758 256.063C626.99 253.553 655.125 326.346 720.91 328.857C773.538 330.865 812.898 311.286 826 301.246" stroke="#002B2E" stroke-width="3" stroke-dasharray="12 12"/>
<path d="M346.311 319C347.477 254.991 342.519 190.171 334.882 177.64C309.675 136.279 274.61 79.346 309.995 53.5063C367.642 11.4104 415.762 68.1998 448.814 60.0925C482.885 51.7357 515.308 -2.73468 559.248 2.33203C603.187 7.39874 620.297 74.2793 663.07 79.346C705.843 84.4127 781.668 39.8257 798 39.8257" stroke="#002B2E" stroke-width="3" stroke-dasharray="12 12"/>
</svg>
